<svg width="64" height="64" viewBox="0 0 64 64" fill="none" xmlns="http://www.w3.org/2000/svg">
<rect width="64" height="64" rx="32" fill="#CAF9D7"/>
<path d="M32.0001 20C30.4242 20 28.8638 20.3103 27.4079 20.9134C25.952 21.5165 24.6291 22.4004 23.5148 23.5147C22.4005 24.629 21.5166 25.9519 20.9135 27.4078C20.3105 28.8637 20.0001 30.4241 20.0001 32C20.0001 33.5758 20.3105 35.1363 20.9135 36.5922C21.5166 38.0481 22.4005 39.3709 23.5148 40.4852C24.6291 41.5995 25.952 42.4835 27.4079 43.0865C28.8638 43.6896 30.4242 44 32.0001 44H32.6667C32.8988 44 33.1242 43.9225 33.3071 43.7797C33.49 43.6369 33.6199 43.4371 33.6761 43.212C33.7603 42.8954 33.7678 42.5634 33.698 42.2434C33.6282 41.9234 33.4831 41.6247 33.2747 41.372L30.8214 38.4266C30.7476 38.3379 30.6981 38.2315 30.6777 38.1178C30.6573 38.0042 30.6668 37.8872 30.7053 37.7783C30.7437 37.6694 30.8098 37.5724 30.897 37.4967C30.9842 37.4211 31.0895 37.3693 31.2027 37.3466L39.3067 35.7253C40.6301 35.4603 41.8209 34.7451 42.6765 33.7013C43.5322 32.6575 43.9999 31.3496 44.0001 30C44.0001 27.3478 42.9465 24.8043 41.0711 22.9289C39.1958 21.0535 36.6522 20 34.0001 20H32.0001ZM32.5627 38.4333L34.2987 40.5173C34.9881 41.344 35.2414 42.4506 34.9801 43.4946C34.857 44.0164 34.5619 44.4815 34.1422 44.815C33.7225 45.1486 33.2028 45.3311 32.6667 45.3333H32.0001C24.6361 45.3333 18.6667 39.364 18.6667 32C18.6667 24.636 24.6361 18.6666 32.0001 18.6666H34.0001C35.4884 18.6666 36.9621 18.9598 38.3372 19.5293C39.7122 20.0989 40.9616 20.9337 42.014 21.9861C43.0664 23.0385 43.9012 24.2879 44.4707 25.6629C45.0403 27.0379 45.3334 28.5116 45.3334 30C45.3333 31.658 44.7589 33.2648 43.7078 34.547C42.6567 35.8293 41.1938 36.7079 39.5681 37.0333L32.5627 38.4333ZM40.0001 29.3333C40.3537 29.3333 40.6928 29.1928 40.9429 28.9428C41.1929 28.6927 41.3334 28.3536 41.3334 28C41.3334 27.6463 41.1929 27.3072 40.9429 27.0572C40.6928 26.8071 40.3537 26.6666 40.0001 26.6666C39.6465 26.6666 39.3073 26.8071 39.0573 27.0572C38.8072 27.3072 38.6667 27.6463 38.6667 28C38.6667 28.3536 38.8072 28.6927 39.0573 28.9428C39.3073 29.1928 39.6465 29.3333 40.0001 29.3333ZM34.6667 25.3333C35.0204 25.3333 35.3595 25.1928 35.6096 24.9428C35.8596 24.6927 36.0001 24.3536 36.0001 24C36.0001 23.6463 35.8596 23.3072 35.6096 23.0572C35.3595 22.8071 35.0204 22.6666 34.6667 22.6666C34.3131 22.6666 33.974 22.8071 33.7239 23.0572C33.4739 23.3072 33.3334 23.6463 33.3334 24C33.3334 24.3536 33.4739 24.6927 33.7239 24.9428C33.974 25.1928 34.3131 25.3333 34.6667 25.3333ZM28.0001 26.6666C28.3537 26.6666 28.6928 26.5262 28.9429 26.2761C29.1929 26.0261 29.3334 25.6869 29.3334 25.3333C29.3334 24.9797 29.1929 24.6405 28.9429 24.3905C28.6928 24.1404 28.3537 24 28.0001 24C27.6465 24 27.3073 24.1404 27.0573 24.3905C26.8072 24.6405 26.6667 24.9797 26.6667 25.3333C26.6667 25.6869 26.8072 26.0261 27.0573 26.2761C27.3073 26.5262 27.6465 26.6666 28.0001 26.6666ZM24.0001 32C24.3537 32 24.6928 31.8595 24.9429 31.6094C25.1929 31.3594 25.3334 31.0202 25.3334 30.6666C25.3334 30.313 25.1929 29.9739 24.9429 29.7238C24.6928 29.4738 24.3537 29.3333 24.0001 29.3333C23.6465 29.3333 23.3073 29.4738 23.0573 29.7238C22.8072 29.9739 22.6667 30.313 22.6667 30.6666C22.6667 31.0202 22.8072 31.3594 23.0573 31.6094C23.3073 31.8595 23.6465 32 24.0001 32Z" fill="#13C264"/>
</svg>
