<svg width="64" height="64" viewBox="0 0 64 64" fill="none" xmlns="http://www.w3.org/2000/svg">
<rect width="64" height="64" rx="32" fill="#CCCBFA"/>
<path d="M45.3333 38.6666H35.8866C35.7487 39.0567 35.4931 39.3944 35.1552 39.6332C34.8173 39.872 34.4137 40.0002 33.9999 39.9999H29.9999C29.5862 40.0002 29.1825 39.872 28.8446 39.6332C28.5067 39.3944 28.2512 39.0567 28.1133 38.6666H18.6666V40.6666C18.6666 40.8434 18.7368 41.013 18.8618 41.138C18.9869 41.263 19.1564 41.3333 19.3333 41.3333H44.6666C44.8434 41.3333 45.013 41.263 45.138 41.138C45.263 41.013 45.3333 40.8434 45.3333 40.6666V38.6666ZM19.9999 37.3333V23.3199C19.9999 22.7895 20.2106 22.2808 20.5857 21.9057C20.9608 21.5307 21.4695 21.3199 21.9999 21.3199H41.9999C42.5303 21.3199 43.0391 21.5307 43.4141 21.9057C43.7892 22.2808 43.9999 22.7895 43.9999 23.3199V37.3333H45.9999C46.1767 37.3333 46.3463 37.4035 46.4713 37.5285C46.5963 37.6536 46.6666 37.8231 46.6666 37.9999V40.6666C46.6666 41.197 46.4559 41.7058 46.0808 42.0808C45.7057 42.4559 45.197 42.6666 44.6666 42.6666H19.3333C18.8028 42.6666 18.2941 42.4559 17.919 42.0808C17.544 41.7058 17.3333 41.197 17.3333 40.6666V37.9999C17.3333 37.8231 17.4035 37.6536 17.5285 37.5285C17.6535 37.4035 17.8231 37.3333 17.9999 37.3333H19.9999ZM21.3333 37.3333H28.6666C28.8434 37.3333 29.013 37.4035 29.138 37.5285C29.263 37.6536 29.3333 37.8231 29.3333 37.9999C29.3333 38.1768 29.4035 38.3463 29.5285 38.4714C29.6535 38.5964 29.8231 38.6666 29.9999 38.6666H33.9999C34.1767 38.6666 34.3463 38.5964 34.4713 38.4714C34.5963 38.3463 34.6666 38.1768 34.6666 37.9999C34.6666 37.8231 34.7368 37.6536 34.8618 37.5285C34.9869 37.4035 35.1564 37.3333 35.3333 37.3333H42.6666V23.3199C42.6666 23.1431 42.5963 22.9736 42.4713 22.8485C42.3463 22.7235 42.1767 22.6533 41.9999 22.6533H21.9999C21.8231 22.6533 21.6535 22.7235 21.5285 22.8485C21.4035 22.9736 21.3333 23.1431 21.3333 23.3199V37.3333Z" fill="#2C13C2"/>
</svg>
