<svg width="64" height="64" viewBox="0 0 64 64" fill="none" xmlns="http://www.w3.org/2000/svg">
<rect width="64" height="64" rx="32" fill="#EEB1B1"/>
<path d="M27.9373 39.98C27.7875 40.7373 27.3796 41.4191 26.7831 41.9091C26.1866 42.3991 25.4385 42.6669 24.6666 42.6667H21.9999C21.8231 42.6667 21.6535 42.5965 21.5285 42.4714C21.4035 42.3464 21.3333 42.1768 21.3333 42V39.3334C21.3331 38.5614 21.6009 37.8134 22.0909 37.2169C22.5808 36.6204 23.2627 36.2125 24.0199 36.0627L24.0359 35.6054C24.0626 34.832 24.1426 34.0747 24.2719 33.3334H19.3333C19.2243 33.3333 19.117 33.3066 19.0207 33.2555C18.9245 33.2044 18.8423 33.1305 18.7812 33.0402C18.7202 32.9499 18.6822 32.8461 18.6705 32.7377C18.6589 32.6294 18.6741 32.5199 18.7146 32.4187L21.3813 25.752C21.4308 25.6285 21.5162 25.5225 21.6264 25.4479C21.7367 25.3733 21.8668 25.3334 21.9999 25.3334H27.9999C28.0333 25.3334 28.0666 25.336 28.0999 25.3414C29.9755 23.1956 32.3777 21.5755 35.07 20.6408C37.7622 19.706 40.6515 19.4889 43.4533 20.0107C43.5858 20.0354 43.7077 20.0998 43.8029 20.1952C43.8981 20.2907 43.9622 20.4128 43.9866 20.5454C44.507 23.3474 44.2895 26.2367 43.3554 28.9293C42.4212 31.6218 40.8026 34.025 38.6586 35.9027C38.6636 35.9349 38.6663 35.9674 38.6666 36V42C38.6666 42.1332 38.6267 42.2633 38.5521 42.3735C38.4774 42.4838 38.3715 42.5692 38.2479 42.6187L31.5813 45.2854C31.4801 45.3259 31.3706 45.341 31.2622 45.3294C31.1539 45.3178 31.05 45.2798 30.9598 45.2188C30.8695 45.1577 30.7956 45.0755 30.7445 44.9792C30.6934 44.883 30.6666 44.7757 30.6666 44.6667V39.7267C29.9159 39.8587 29.1559 39.9374 28.3946 39.964L27.9373 39.98ZM26.6493 39.5934L24.4066 37.3507C23.9254 37.4138 23.4835 37.6497 23.1634 38.0145C22.8432 38.3793 22.6667 38.848 22.6666 39.3334V41.3334H24.6666C25.1519 41.3333 25.6207 41.1567 25.9855 40.8366C26.3502 40.5164 26.5862 40.0746 26.6493 39.5934ZM31.9999 39.436V43.6814L37.3333 41.548V36.9507C35.7205 38.0951 33.9135 38.9372 31.9999 39.436ZM24.5599 32C25.0614 30.086 25.9062 28.2789 27.0533 26.6667H22.4533L20.3199 32H24.5599ZM27.5999 38.6574L28.3479 38.6307C29.0973 38.6054 29.8413 38.524 30.5786 38.388C38.6266 36.8974 43.9946 29.28 42.7546 21.2454C42.1679 21.1547 41.5759 21.0987 40.9813 21.0787C32.6466 20.7907 25.6559 27.316 25.3679 35.652L25.3426 36.4L27.5999 38.6574ZM34.6666 33.3334C33.6057 33.3334 32.5883 32.9119 31.8382 32.1618C31.088 31.4117 30.6666 30.3942 30.6666 29.3334C30.6666 28.2725 31.088 27.2551 31.8382 26.5049C32.5883 25.7548 33.6057 25.3334 34.6666 25.3334C35.7275 25.3334 36.7449 25.7548 37.495 26.5049C38.2452 27.2551 38.6666 28.2725 38.6666 29.3334C38.6666 30.3942 38.2452 31.4117 37.495 32.1618C36.7449 32.9119 35.7275 33.3334 34.6666 33.3334ZM34.6666 32C35.3738 32 36.0521 31.7191 36.5522 31.219C37.0523 30.7189 37.3333 30.0406 37.3333 29.3334C37.3333 28.6261 37.0523 27.9479 36.5522 27.4478C36.0521 26.9477 35.3738 26.6667 34.6666 26.6667C33.9593 26.6667 33.2811 26.9477 32.781 27.4478C32.2809 27.9479 31.9999 28.6261 31.9999 29.3334C31.9999 30.0406 32.2809 30.7189 32.781 31.219C33.2811 31.7191 33.9593 32 34.6666 32Z" fill="#CA0B0B"/>
</svg>
