<svg width="64" height="64" viewBox="0 0 64 64" fill="none" xmlns="http://www.w3.org/2000/svg">
<rect width="64" height="64" rx="32" fill="#CAF3F9"/>
<path d="M28 20.6666V26C28 26.1768 28.0702 26.3463 28.1953 26.4714C28.3203 26.5964 28.4899 26.6666 28.6667 26.6666H36.6667C36.8435 26.6666 37.013 26.5964 37.1381 26.4714C37.2631 26.3463 37.3333 26.1768 37.3333 26V20.6666C37.3333 20.4898 37.2631 20.3202 37.1381 20.1952C37.013 20.0702 36.8435 20 36.6667 20H28.6667C28.4899 20 28.3203 20.0702 28.1953 20.1952C28.0702 20.3202 28 20.4898 28 20.6666ZM33.3333 32H38.0147C38.5451 32 39.0538 32.2107 39.4289 32.5857C39.804 32.9608 40.0147 33.4695 40.0147 34V34.6666H43.3333C43.8638 34.6666 44.3725 34.8773 44.7475 35.2524C45.1226 35.6275 45.3333 36.1362 45.3333 36.6666V42C45.3333 42.5304 45.1226 43.0391 44.7475 43.4142C44.3725 43.7892 43.8638 44 43.3333 44H42C42.1768 44 42.3464 44.0702 42.4714 44.1952C42.5964 44.3202 42.6667 44.4898 42.6667 44.6666C42.6667 44.8434 42.5964 45.013 42.4714 45.138C42.3464 45.2631 42.1768 45.3333 42 45.3333H36.6667C36.4899 45.3333 36.3203 45.2631 36.1953 45.138C36.0702 45.013 36 44.8434 36 44.6666C36 44.4898 36.0702 44.3202 36.1953 44.1952C36.3203 44.0702 36.4899 44 36.6667 44H35.3333C34.8029 44 34.2942 43.7892 33.9191 43.4142C33.544 43.0391 33.3333 42.5304 33.3333 42V36.6666C33.3333 36.1362 33.544 35.6275 33.9191 35.2524C34.2942 34.8773 34.8029 34.6666 35.3333 34.6666H38.6813V34C38.6813 33.8231 38.6111 33.6536 38.4861 33.5286C38.361 33.4035 38.1915 33.3333 38.0147 33.3333H27.3333C27.1565 33.3333 26.987 33.4035 26.8619 33.5286C26.7369 33.6536 26.6667 33.8231 26.6667 34V34.6666H30C30.5304 34.6666 31.0391 34.8773 31.4142 35.2524C31.7893 35.6275 32 36.1362 32 36.6666V42C32 42.5304 31.7893 43.0391 31.4142 43.4142C31.0391 43.7892 30.5304 44 30 44H28.6667C28.8435 44 29.013 44.0702 29.1381 44.1952C29.2631 44.3202 29.3333 44.4898 29.3333 44.6666C29.3333 44.8434 29.2631 45.013 29.1381 45.138C29.013 45.2631 28.8435 45.3333 28.6667 45.3333H23.3333C23.1565 45.3333 22.987 45.2631 22.8619 45.138C22.7369 45.013 22.6667 44.8434 22.6667 44.6666C22.6667 44.4898 22.7369 44.3202 22.8619 44.1952C22.987 44.0702 23.1565 44 23.3333 44H22C21.4696 44 20.9609 43.7892 20.5858 43.4142C20.2107 43.0391 20 42.5304 20 42V36.6666C20 36.1362 20.2107 35.6275 20.5858 35.2524C20.9609 34.8773 21.4696 34.6666 22 34.6666H25.3333V34C25.3333 33.4695 25.544 32.9608 25.9191 32.5857C26.2942 32.2107 26.8029 32 27.3333 32H32V29.3333H30C29.8232 29.3333 29.6536 29.2631 29.5286 29.138C29.4036 29.013 29.3333 28.8434 29.3333 28.6666C29.3333 28.4898 29.4036 28.3202 29.5286 28.1952C29.6536 28.0702 29.8232 28 30 28H28.6667C28.1362 28 27.6275 27.7892 27.2525 27.4142C26.8774 27.0391 26.6667 26.5304 26.6667 26V20.6666C26.6667 20.1362 26.8774 19.6275 27.2525 19.2524C27.6275 18.8773 28.1362 18.6666 28.6667 18.6666H36.6667C37.1971 18.6666 37.7058 18.8773 38.0809 19.2524C38.456 19.6275 38.6667 20.1362 38.6667 20.6666V26C38.6667 26.5304 38.456 27.0391 38.0809 27.4142C37.7058 27.7892 37.1971 28 36.6667 28H35.3333C35.5101 28 35.6797 28.0702 35.8047 28.1952C35.9298 28.3202 36 28.4898 36 28.6666C36 28.8434 35.9298 29.013 35.8047 29.138C35.6797 29.2631 35.5101 29.3333 35.3333 29.3333H33.3333V32ZM39.3373 36H35.3333C35.1565 36 34.987 36.0702 34.8619 36.1952C34.7369 36.3202 34.6667 36.4898 34.6667 36.6666V42C34.6667 42.1768 34.7369 42.3463 34.8619 42.4714C34.987 42.5964 35.1565 42.6666 35.3333 42.6666H43.3333C43.5101 42.6666 43.6797 42.5964 43.8047 42.4714C43.9298 42.3463 44 42.1768 44 42V36.6666C44 36.4898 43.9298 36.3202 43.8047 36.1952C43.6797 36.0702 43.5101 36 43.3333 36H39.36C39.3524 36.0001 39.3449 36.0001 39.3373 36ZM21.3333 36.6666V42C21.3333 42.1768 21.4036 42.3463 21.5286 42.4714C21.6536 42.5964 21.8232 42.6666 22 42.6666H30C30.1768 42.6666 30.3464 42.5964 30.4714 42.4714C30.5964 42.3463 30.6667 42.1768 30.6667 42V36.6666C30.6667 36.4898 30.5964 36.3202 30.4714 36.1952C30.3464 36.0702 30.1768 36 30 36H22C21.8232 36 21.6536 36.0702 21.5286 36.1952C21.4036 36.3202 21.3333 36.4898 21.3333 36.6666Z" fill="#13ADC2"/>
</svg>
