<svg width="64" height="64" viewBox="0 0 64 64" fill="none" xmlns="http://www.w3.org/2000/svg">
<rect width="64" height="64" rx="32" fill="#FAE4CB"/>
<path d="M42.6534 40.728C42.6469 40.7885 42.633 40.8481 42.612 40.9053C42.598 40.9398 42.5815 40.9732 42.5627 41.0053C42.5507 41.0253 42.5467 41.048 42.532 41.0666C42.508 41.0986 42.4747 41.1173 42.4454 41.1426C42.4294 41.16 42.4187 41.1853 42.3987 41.2L37.0654 45.2C37.0547 45.208 37.0387 45.2053 37.0254 45.2133C36.92 45.2882 36.7946 45.33 36.6654 45.3333H27.332C27.2032 45.3298 27.0784 45.288 26.9734 45.2133C26.9627 45.2053 26.9454 45.208 26.9334 45.2L21.6 41.2C21.5814 41.1853 21.5707 41.16 21.5534 41.1426C21.5254 41.1173 21.492 41.0986 21.468 41.0666C21.4534 41.048 21.4494 41.0253 21.4387 41.0053C21.4199 40.9732 21.4034 40.9398 21.3894 40.9053C21.3684 40.8481 21.3545 40.7885 21.348 40.728C21.3454 40.7066 21.332 40.6893 21.332 40.6666V23.3333C21.332 23.3106 21.3454 23.2933 21.348 23.272C21.3541 23.2114 21.3675 23.1519 21.388 23.0946C21.402 23.0602 21.4185 23.0267 21.4374 22.9946C21.448 22.9746 21.452 22.952 21.4667 22.9333C21.492 22.9013 21.5254 22.8826 21.5534 22.8573C21.5707 22.84 21.58 22.8146 21.6 22.8L26.9334 18.8C27.0486 18.7131 27.1891 18.6662 27.3334 18.6666H36.6667C36.8107 18.6666 36.9507 18.7133 37.0667 18.8L42.4 22.8C42.4187 22.8146 42.428 22.84 42.4467 22.8573C42.4747 22.8826 42.508 22.9013 42.532 22.9333C42.5467 22.952 42.5507 22.9746 42.5627 22.9946C42.5815 23.0267 42.598 23.0602 42.612 23.0946C42.6325 23.1519 42.646 23.2114 42.652 23.272C42.6547 23.2933 42.6654 23.3106 42.6654 23.3333V40.6666C42.6654 40.6893 42.6547 40.7066 42.652 40.728H42.6534ZM27.5547 20L23.1107 23.3333L27.5534 26.6666H36.444L40.8867 23.3333L36.4454 20H27.5547ZM40.888 40.6666L37.3307 38V43.3333L40.8867 40.6666H40.888ZM37.3307 36.3333L41.3307 39.3333V24.6666L37.3307 27.6666V36.3333ZM28 36H36V28H28V36ZM28 44H36V37.3333H28V44ZM26.6667 38L23.1134 40.6666L26.6667 43.3333V38ZM22.6667 24.6666V39.3333L26.6667 36.3333V27.6666L22.6667 24.6666Z" fill="#C27C13"/>
</svg>
