<svg width="64" height="64" viewBox="0 0 64 64" fill="none" xmlns="http://www.w3.org/2000/svg">
<rect width="64" height="64" rx="32" fill="#BEF4E4"/>
<path d="M45.2093 23.4959C45.292 23.7733 45.3333 24.0613 45.3333 24.3506V39.6533C45.3331 40.1202 45.224 40.5807 45.0145 40.998C44.8051 41.4153 44.5011 41.778 44.1268 42.0571C43.7525 42.3363 43.3181 42.5242 42.8584 42.6059C42.3987 42.6877 41.9262 42.661 41.4786 42.5279L34.1266 40.3413C33.6062 41.4026 32.7481 42.2611 31.687 42.782C30.6259 43.303 29.4219 43.4568 28.2639 43.2194C27.106 42.982 26.0596 42.3668 25.289 41.4704C24.5185 40.574 24.0674 39.4471 24.0066 38.2666L24 37.9999L23.9986 37.3333L20.812 36.3853C20.192 36.201 19.6482 35.8213 19.2616 35.3028C18.8749 34.7843 18.6663 34.1547 18.6666 33.5079V30.4933C18.6669 29.8468 18.8761 29.2177 19.2629 28.6997C19.6497 28.1817 20.1935 27.8025 20.8133 27.6186L41.48 21.4773C42.2424 21.2509 43.0635 21.3365 43.7628 21.7153C44.4621 22.094 44.9824 22.735 45.2093 23.4973V23.4959ZM25.9986 37.9266L26 37.9986C25.9993 38.7236 26.2349 39.429 26.6712 40.0079C27.1075 40.5869 27.7206 41.0078 28.4176 41.207C29.1147 41.4061 29.8577 41.3726 30.5339 41.1114C31.2102 40.8503 31.7829 40.3759 32.1653 39.7599L25.9986 37.9266ZM42.048 23.3933L21.3813 29.5333C21.1746 29.5948 20.9933 29.7216 20.8645 29.8946C20.7357 30.0676 20.6663 30.2776 20.6666 30.4933V33.5079C20.6663 33.7236 20.7357 33.9336 20.8645 34.1067C20.9933 34.2797 21.1746 34.4064 21.3813 34.4679L42.048 40.6106C42.1973 40.6551 42.355 40.664 42.5085 40.6367C42.6619 40.6094 42.8068 40.5466 42.9317 40.4534C43.0566 40.3601 43.1579 40.239 43.2276 40.0996C43.2974 39.9602 43.3335 39.8065 43.3333 39.6506V24.3519C43.3333 24.1962 43.297 24.0426 43.2272 23.9034C43.1574 23.7642 43.056 23.6432 42.9312 23.5501C42.8063 23.457 42.6615 23.3943 42.5081 23.3671C42.3548 23.3399 42.1972 23.3488 42.048 23.3933Z" fill="#0BCA91"/>
</svg>
