<svg width="132" height="132" viewBox="0 0 132 132" fill="none" xmlns="http://www.w3.org/2000/svg">
<g filter="url(#filter0_d)">
<rect x="30" y="10" width="72" height="72" rx="36" fill="url(#paint0_linear)"/>
<path d="M65.2 40.4033C65.2 40.1911 65.2842 39.9876 65.4343 39.8376C65.5843 39.6876 65.7878 39.6033 66 39.6033C66.2121 39.6033 66.4156 39.6876 66.5656 39.8376C66.7157 39.9876 66.8 40.1911 66.8 40.4033V42.0065C66.8 42.2186 66.7157 42.4221 66.5656 42.5722C66.4156 42.7222 66.2121 42.8065 66 42.8065C65.7878 42.8065 65.5843 42.7222 65.4343 42.5722C65.2842 42.4221 65.2 42.2186 65.2 42.0065V40.4033Z" fill="white"/>
<path d="M70.5599 41.9088C70.4098 41.7588 70.2064 41.6746 69.9943 41.6746C69.7821 41.6746 69.5787 41.7588 69.4287 41.9088L68.2959 43.0432C68.1501 43.1941 68.0695 43.3962 68.0713 43.6059C68.0731 43.8157 68.1573 44.0163 68.3056 44.1646C68.4539 44.313 68.6546 44.3971 68.8643 44.3989C69.0741 44.4008 69.2762 44.3201 69.4271 44.1744L70.5615 43.04C70.7114 42.89 70.7957 42.6865 70.7957 42.4744C70.7957 42.2623 70.7114 42.0588 70.5615 41.9088H70.5599Z" fill="white"/>
<path d="M62.5632 41.9088C62.4894 41.8324 62.4011 41.7714 62.3035 41.7295C62.2059 41.6876 62.1009 41.6655 61.9947 41.6646C61.8885 41.6637 61.7831 41.6839 61.6848 41.7241C61.5865 41.7643 61.4972 41.8238 61.4221 41.8989C61.3469 41.974 61.2875 42.0633 61.2473 42.1616C61.2071 42.2599 61.1869 42.3653 61.1878 42.4715C61.1887 42.5777 61.2108 42.6827 61.2527 42.7803C61.2946 42.8779 61.3556 42.9662 61.432 43.04L62.5648 44.1744C62.6386 44.2508 62.7268 44.3117 62.8245 44.3537C62.9221 44.3956 63.027 44.4177 63.1333 44.4186C63.2395 44.4195 63.3448 44.3993 63.4431 44.359C63.5415 44.3188 63.6308 44.2594 63.7059 44.1843C63.781 44.1092 63.8404 44.0199 63.8806 43.9215C63.9209 43.8232 63.9411 43.7179 63.9402 43.6117C63.9393 43.5054 63.9172 43.4005 63.8753 43.3029C63.8333 43.2053 63.7724 43.117 63.696 43.0432L62.5632 41.9088Z" fill="white"/>
<path d="M65.9999 33.2C71.3023 33.2 75.5999 37.3552 75.5999 42.48C75.5999 45.1632 74.4079 47.6256 72.0735 49.8304C71.9724 49.9258 71.8932 50.0421 71.8415 50.1712L71.7999 50.3007L70.3023 56.5679C70.0079 57.8015 68.9183 58.696 67.6303 58.792L67.3999 58.7999H64.5999C63.2911 58.7999 62.1439 57.9744 61.7583 56.7808L61.6975 56.5679L60.2015 50.3024C60.1587 50.1219 60.0642 49.9578 59.9295 49.8304C57.7055 47.7312 56.5167 45.3983 56.4095 42.8623L56.3999 42.48L56.4047 42.1744C56.5727 37.1904 60.8047 33.2 65.9999 33.2ZM62.7279 54L63.2383 56.1343L63.2799 56.288C63.4351 56.768 63.8815 57.1231 64.4191 57.1887L64.5999 57.1999H67.3407L67.5103 57.1951C67.7668 57.1804 68.014 57.0939 68.2237 56.9453C68.4333 56.7968 68.597 56.5923 68.6959 56.3552L68.7455 56.1951L69.2719 54H62.7279ZM65.9999 34.8C61.7887 34.8 58.3391 37.9248 58.0239 41.8624L58.0047 42.2016L57.9999 42.4464L58.0063 42.7936C58.0959 44.88 59.0847 46.8336 61.0271 48.6671C61.3279 48.952 61.5551 49.304 61.6895 49.6912L61.7583 49.9312L62.3455 52.4H65.1999V45.1952C65.1999 44.983 65.2842 44.7795 65.4342 44.6295C65.5842 44.4794 65.7877 44.3952 65.9999 44.3952C66.2121 44.3952 66.4156 44.4794 66.5656 44.6295C66.7156 44.7795 66.7999 44.983 66.7999 45.1952V52.4H69.6559L70.2751 49.816L70.3567 49.5759C70.4943 49.2319 70.7055 48.9215 70.9743 48.6671C73.0127 46.7439 73.9999 44.6896 73.9999 42.48C73.9999 38.2512 70.4303 34.8 65.9999 34.8Z" fill="white"/>
</g>
<defs>
<filter id="filter0_d" x="0" y="0" width="132" height="132" filterUnits="userSpaceOnUse" color-interpolation-filters="sRGB">
<feFlood flood-opacity="0" result="BackgroundImageFix"/>
<feColorMatrix in="SourceAlpha" type="matrix" values="0 0 0 0 0 0 0 0 0 0 0 0 0 0 0 0 0 0 127 0" result="hardAlpha"/>
<feOffset dy="20"/>
<feGaussianBlur stdDeviation="15"/>
<feComposite in2="hardAlpha" operator="out"/>
<feColorMatrix type="matrix" values="0 0 0 0 0.215686 0 0 0 0 0.247059 0 0 0 0 0.231373 0 0 0 0.1 0"/>
<feBlend mode="normal" in2="BackgroundImageFix" result="effect1_dropShadow"/>
<feBlend mode="normal" in="SourceGraphic" in2="effect1_dropShadow" result="shape"/>
</filter>
<linearGradient id="paint0_linear" x1="44.5" y1="21" x2="82.5" y2="78.5" gradientUnits="userSpaceOnUse">
<stop stop-color="#13C264"/>
<stop offset="1" stop-color="#0F964D"/>
</linearGradient>
</defs>
</svg>
