<svg width="132" height="132" viewBox="0 0 132 132" fill="none" xmlns="http://www.w3.org/2000/svg">
<g filter="url(#filter0_d)">
<rect x="30" y="10" width="72" height="72" rx="36" fill="url(#paint0_linear)"/>
<path d="M66 34.0001C64.4241 34.0001 62.8637 34.3105 61.4078 34.9135C59.9519 35.5166 58.629 36.4005 57.5147 37.5148C56.4004 38.6291 55.5165 39.952 54.9134 41.4079C54.3103 42.8638 54 44.4242 54 46.0001C54 47.5759 54.3103 49.1364 54.9134 50.5923C55.5165 52.0482 56.4004 53.3711 57.5147 54.4854C58.629 55.5997 59.9519 56.4836 61.4078 57.0866C62.8637 57.6897 64.4241 58.0001 66 58.0001H66.6666C66.8987 58.0002 67.1241 57.9226 67.3069 57.7798C67.4898 57.6371 67.6197 57.4372 67.676 57.2121C67.7602 56.8956 67.7677 56.5635 67.6979 56.2435C67.6281 55.9235 67.483 55.6248 67.2746 55.3721L64.8213 52.4267C64.7475 52.338 64.6979 52.2316 64.6776 52.1179C64.6572 52.0043 64.6667 51.8873 64.7052 51.7784C64.7436 51.6696 64.8097 51.5725 64.8969 51.4969C64.9841 51.4212 65.0894 51.3695 65.2026 51.3467L73.3066 49.7254C74.63 49.4604 75.8208 48.7452 76.6764 47.7014C77.532 46.6577 77.9997 45.3497 78 44.0001C78 41.3479 76.9464 38.8044 75.071 36.929C73.1957 35.0536 70.6521 34.0001 68 34.0001H66ZM66.5626 52.4334L68.2986 54.5174C68.988 55.3441 69.2413 56.4507 68.98 57.4947C68.8569 58.0165 68.5617 58.4816 68.1421 58.8152C67.7224 59.1487 67.2027 59.3313 66.6666 59.3334H66C58.636 59.3334 52.6666 53.3641 52.6666 46.0001C52.6666 38.6361 58.636 32.6667 66 32.6667H68C69.4883 32.6667 70.962 32.9599 72.337 33.5294C73.7121 34.099 74.9614 34.9338 76.0138 35.9862C77.0662 37.0386 77.901 38.288 78.4706 39.663C79.0401 41.038 79.3333 42.5118 79.3333 44.0001C79.3332 45.6581 78.7587 47.2649 77.7076 48.5471C76.6565 49.8294 75.1937 50.708 73.568 51.0334L66.5626 52.4334ZM74 43.3334C74.3536 43.3334 74.6927 43.1929 74.9428 42.9429C75.1928 42.6928 75.3333 42.3537 75.3333 42.0001C75.3333 41.6465 75.1928 41.3073 74.9428 41.0573C74.6927 40.8072 74.3536 40.6667 74 40.6667C73.6463 40.6667 73.3072 40.8072 73.0571 41.0573C72.8071 41.3073 72.6666 41.6465 72.6666 42.0001C72.6666 42.3537 72.8071 42.6928 73.0571 42.9429C73.3072 43.1929 73.6463 43.3334 74 43.3334ZM68.6666 39.3334C69.0202 39.3334 69.3594 39.1929 69.6094 38.9429C69.8595 38.6928 70 38.3537 70 38.0001C70 37.6465 69.8595 37.3073 69.6094 37.0573C69.3594 36.8072 69.0202 36.6667 68.6666 36.6667C68.313 36.6667 67.9739 36.8072 67.7238 37.0573C67.4738 37.3073 67.3333 37.6465 67.3333 38.0001C67.3333 38.3537 67.4738 38.6928 67.7238 38.9429C67.9739 39.1929 68.313 39.3334 68.6666 39.3334ZM62 40.6667C62.3536 40.6667 62.6927 40.5263 62.9428 40.2762C63.1928 40.0262 63.3333 39.687 63.3333 39.3334C63.3333 38.9798 63.1928 38.6407 62.9428 38.3906C62.6927 38.1406 62.3536 38.0001 62 38.0001C61.6463 38.0001 61.3072 38.1406 61.0572 38.3906C60.8071 38.6407 60.6666 38.9798 60.6666 39.3334C60.6666 39.687 60.8071 40.0262 61.0572 40.2762C61.3072 40.5263 61.6463 40.6667 62 40.6667ZM58 46.0001C58.3536 46.0001 58.6927 45.8596 58.9428 45.6096C59.1928 45.3595 59.3333 45.0204 59.3333 44.6667C59.3333 44.3131 59.1928 43.974 58.9428 43.7239C58.6927 43.4739 58.3536 43.3334 58 43.3334C57.6463 43.3334 57.3072 43.4739 57.0572 43.7239C56.8071 43.974 56.6666 44.3131 56.6666 44.6667C56.6666 45.0204 56.8071 45.3595 57.0572 45.6096C57.3072 45.8596 57.6463 46.0001 58 46.0001Z" fill="white"/>
</g>
<defs>
<filter id="filter0_d" x="0" y="0" width="132" height="132" filterUnits="userSpaceOnUse" color-interpolation-filters="sRGB">
<feFlood flood-opacity="0" result="BackgroundImageFix"/>
<feColorMatrix in="SourceAlpha" type="matrix" values="0 0 0 0 0 0 0 0 0 0 0 0 0 0 0 0 0 0 127 0" result="hardAlpha"/>
<feOffset dy="20"/>
<feGaussianBlur stdDeviation="15"/>
<feComposite in2="hardAlpha" operator="out"/>
<feColorMatrix type="matrix" values="0 0 0 0 0.215686 0 0 0 0 0.247059 0 0 0 0 0.231373 0 0 0 0.1 0"/>
<feBlend mode="normal" in2="BackgroundImageFix" result="effect1_dropShadow"/>
<feBlend mode="normal" in="SourceGraphic" in2="effect1_dropShadow" result="shape"/>
</filter>
<linearGradient id="paint0_linear" x1="44.5" y1="21" x2="82.5" y2="78.5" gradientUnits="userSpaceOnUse">
<stop stop-color="#13C264"/>
<stop offset="1" stop-color="#0F964D"/>
</linearGradient>
</defs>
</svg>
