<svg width="132" height="132" viewBox="0 0 132 132" fill="none" xmlns="http://www.w3.org/2000/svg">
<g filter="url(#filter0_d)">
<rect x="30" y="10" width="72" height="72" rx="36" fill="url(#paint0_linear)"/>
<path d="M60.5066 47.5667C60.6216 47.7011 60.6784 47.8756 60.6646 48.0519C60.6509 48.2282 60.5677 48.3918 60.4333 48.5067C60.2989 48.6217 60.1244 48.6785 59.9481 48.6648C59.7718 48.651 59.6082 48.5678 59.4933 48.4334L55.4933 43.7667C55.39 43.646 55.3333 43.4923 55.3333 43.3334C55.3333 43.1745 55.39 43.0208 55.4933 42.9001L59.4933 38.2334C59.5502 38.1669 59.6197 38.1122 59.6977 38.0725C59.7757 38.0328 59.8608 38.0089 59.9481 38.0021C60.0354 37.9953 60.1232 38.0057 60.2064 38.0328C60.2897 38.0599 60.3668 38.1032 60.4333 38.1601C60.4998 38.217 60.5545 38.2864 60.5942 38.3645C60.6339 38.4425 60.6578 38.5276 60.6646 38.6149C60.6715 38.7022 60.661 38.79 60.6339 38.8732C60.6068 38.9564 60.5635 39.0335 60.5066 39.1001L56.8786 43.3334L60.5053 47.5667H60.5066ZM61.9373 56.2814C61.9022 56.3636 61.851 56.438 61.7866 56.5C61.7223 56.562 61.6461 56.6105 61.5626 56.6425C61.4791 56.6745 61.3901 56.6893 61.3007 56.6862C61.2114 56.6831 61.1236 56.662 61.0426 56.6243C60.9615 56.5865 60.8889 56.5329 60.829 56.4665C60.7692 56.4001 60.7232 56.3224 60.694 56.2379C60.6648 56.1534 60.6529 56.0639 60.6589 55.9747C60.665 55.8855 60.6889 55.7985 60.7293 55.7187L70.0626 35.7187C70.1408 35.5644 70.2759 35.4465 70.4394 35.3899C70.6029 35.3333 70.782 35.3426 70.9389 35.4156C71.0957 35.4887 71.218 35.6198 71.2799 35.7814C71.3418 35.943 71.3385 36.1223 71.2706 36.2814L61.9373 56.2814ZM71.4933 44.4334C71.3784 44.299 71.3215 44.1245 71.3353 43.9482C71.349 43.7719 71.4323 43.6083 71.5666 43.4934C71.701 43.3785 71.8755 43.3216 72.0518 43.3354C72.2281 43.3491 72.3917 43.4324 72.5066 43.5667L76.5066 48.2334C76.6099 48.3542 76.6667 48.5078 76.6667 48.6667C76.6667 48.8256 76.6099 48.9793 76.5066 49.1001L72.5066 53.7667C72.4497 53.8333 72.3803 53.888 72.3022 53.9277C72.2242 53.9673 72.1391 53.9913 72.0518 53.9981C71.8755 54.0118 71.701 53.955 71.5666 53.8401C71.5001 53.7832 71.4454 53.7137 71.4057 53.6357C71.366 53.5576 71.3421 53.4726 71.3353 53.3853C71.3215 53.209 71.3784 53.0345 71.4933 52.9001L75.1213 48.6667L71.4946 44.4334H71.4933Z" fill="white"/>
</g>
<defs>
<filter id="filter0_d" x="0" y="0" width="132" height="132" filterUnits="userSpaceOnUse" color-interpolation-filters="sRGB">
<feFlood flood-opacity="0" result="BackgroundImageFix"/>
<feColorMatrix in="SourceAlpha" type="matrix" values="0 0 0 0 0 0 0 0 0 0 0 0 0 0 0 0 0 0 127 0" result="hardAlpha"/>
<feOffset dy="20"/>
<feGaussianBlur stdDeviation="15"/>
<feComposite in2="hardAlpha" operator="out"/>
<feColorMatrix type="matrix" values="0 0 0 0 0.215686 0 0 0 0 0.247059 0 0 0 0 0.231373 0 0 0 0.1 0"/>
<feBlend mode="normal" in2="BackgroundImageFix" result="effect1_dropShadow"/>
<feBlend mode="normal" in="SourceGraphic" in2="effect1_dropShadow" result="shape"/>
</filter>
<linearGradient id="paint0_linear" x1="44.5" y1="21" x2="82.5" y2="78.5" gradientUnits="userSpaceOnUse">
<stop stop-color="#13C264"/>
<stop offset="1" stop-color="#0F964D"/>
</linearGradient>
</defs>
</svg>
