<svg width="132" height="132" viewBox="0 0 132 132" fill="none" xmlns="http://www.w3.org/2000/svg">
<g filter="url(#filter0_d)">
<rect x="30" y="10" width="72" height="72" rx="36" fill="url(#paint0_linear)"/>
<path d="M69.3333 51.3334C69.1565 51.3334 68.9869 51.2632 68.8619 51.1382C68.7369 51.0131 68.6666 50.8436 68.6666 50.6667V42.6667C68.6666 42.4899 68.7369 42.3204 68.8619 42.1953C68.9869 42.0703 69.1565 42.0001 69.3333 42.0001H71.3333C71.8163 42.0002 72.2902 42.1314 72.7044 42.3798C73.1186 42.6282 73.4575 42.9845 73.685 43.4105C73.9126 43.8365 74.0201 44.3164 73.9962 44.7987C73.9723 45.2811 73.8178 45.748 73.5493 46.1494C74.1441 46.3573 74.6461 46.7691 74.9663 47.3119C75.2864 47.8546 75.404 48.4932 75.2983 49.1144C75.1925 49.7355 74.8702 50.2992 74.3885 50.7054C73.9067 51.1116 73.2967 51.3341 72.6666 51.3334H69.3333ZM70 50.0001H72.6666C73.0202 50.0001 73.3594 49.8596 73.6094 49.6096C73.8595 49.3595 74 49.0204 74 48.6667C74 48.3131 73.8595 47.974 73.6094 47.7239C73.3594 47.4739 73.0202 47.3334 72.6666 47.3334H70V50.0001ZM70 46.0001H71.3333C71.6869 46.0001 72.0261 45.8596 72.2761 45.6096C72.5262 45.3595 72.6666 45.0204 72.6666 44.6667C72.6666 44.3131 72.5262 43.974 72.2761 43.7239C72.0261 43.4739 71.6869 43.3334 71.3333 43.3334H70V46.0001ZM67.2666 35.3334H76C76.884 35.3334 77.7319 35.6846 78.357 36.3097C78.9821 36.9348 79.3333 37.7827 79.3333 38.6667V56.0001C79.3333 56.8841 78.9821 57.732 78.357 58.3571C77.7319 58.9822 76.884 59.3334 76 59.3334H68C67.218 59.3335 66.4609 59.0588 65.8611 58.5572C65.2613 58.0555 64.8569 57.359 64.7186 56.5894C64.4826 56.6411 64.2416 56.667 64 56.6667H56C55.1159 56.6667 54.2681 56.3156 53.6429 55.6904C53.0178 55.0653 52.6666 54.2175 52.6666 53.3334V36.0001C52.6666 35.116 53.0178 34.2682 53.6429 33.6431C54.2681 33.0179 55.1159 32.6667 56 32.6667H64C64.7684 32.6666 65.5133 32.9319 66.1086 33.4179C66.7038 33.9038 67.1129 34.5805 67.2666 35.3334ZM67.3333 36.6667V53.3334C67.3333 54.4241 66.8093 55.3921 66 56.0001C66 56.5305 66.2107 57.0392 66.5857 57.4143C66.9608 57.7894 67.4695 58.0001 68 58.0001H76C76.5304 58.0001 77.0391 57.7894 77.4142 57.4143C77.7892 57.0392 78 56.5305 78 56.0001V38.6667C78 38.1363 77.7892 37.6276 77.4142 37.2525C77.0391 36.8775 76.5304 36.6667 76 36.6667H67.3333ZM61.4133 45.3281C61.3868 45.3314 61.36 45.3332 61.3333 45.3334H58.6666C58.6399 45.3332 58.6132 45.3314 58.5866 45.3281L57.952 46.9147C57.8837 47.0753 57.7553 47.2026 57.5942 47.2695C57.4332 47.3365 57.2523 47.3376 57.0904 47.2727C56.9285 47.2078 56.7985 47.082 56.7282 46.9224C56.658 46.7628 56.6531 46.582 56.7146 46.4187L59.3813 39.7521C59.4309 39.6286 59.5163 39.5227 59.6266 39.4482C59.7368 39.3736 59.8669 39.3338 60 39.3338C60.1331 39.3338 60.2631 39.3736 60.3734 39.4482C60.4836 39.5227 60.569 39.6286 60.6186 39.7521L63.2853 46.4187C63.3468 46.582 63.3419 46.7628 63.2717 46.9224C63.2014 47.082 63.0714 47.2078 62.9095 47.2727C62.7476 47.3376 62.5668 47.3365 62.4057 47.2695C62.2446 47.2026 62.1162 47.0753 62.048 46.9147L61.4133 45.3281ZM60.8813 44.0001L60 41.7947L59.1186 44.0001H60.88H60.8813ZM64 34.0001H56C55.4695 34.0001 54.9608 34.2108 54.5857 34.5859C54.2107 34.9609 54 35.4696 54 36.0001V53.3334C54 53.8638 54.2107 54.3726 54.5857 54.7476C54.9608 55.1227 55.4695 55.3334 56 55.3334H64C64.5304 55.3334 65.0391 55.1227 65.4142 54.7476C65.7892 54.3726 66 53.8638 66 53.3334V36.0001C66 35.4696 65.7892 34.9609 65.4142 34.5859C65.0391 34.2108 64.5304 34.0001 64 34.0001ZM58.6666 54.0001C58.4898 54.0001 58.3202 53.9298 58.1952 53.8048C58.0702 53.6798 58 53.5102 58 53.3334C58 53.1566 58.0702 52.987 58.1952 52.862C58.3202 52.737 58.4898 52.6667 58.6666 52.6667H61.3333C61.5101 52.6667 61.6797 52.737 61.8047 52.862C61.9297 52.987 62 53.1566 62 53.3334C62 53.5102 61.9297 53.6798 61.8047 53.8048C61.6797 53.9298 61.5101 54.0001 61.3333 54.0001H58.6666ZM70.6666 56.6667C70.4898 56.6667 70.3202 56.5965 70.1952 56.4715C70.0702 56.3465 70 56.1769 70 56.0001C70 55.8233 70.0702 55.6537 70.1952 55.5287C70.3202 55.4037 70.4898 55.3334 70.6666 55.3334H73.3333C73.5101 55.3334 73.6797 55.4037 73.8047 55.5287C73.9297 55.6537 74 55.8233 74 56.0001C74 56.1769 73.9297 56.3465 73.8047 56.4715C73.6797 56.5965 73.5101 56.6667 73.3333 56.6667H70.6666Z" fill="white"/>
</g>
<defs>
<filter id="filter0_d" x="0" y="0" width="132" height="132" filterUnits="userSpaceOnUse" color-interpolation-filters="sRGB">
<feFlood flood-opacity="0" result="BackgroundImageFix"/>
<feColorMatrix in="SourceAlpha" type="matrix" values="0 0 0 0 0 0 0 0 0 0 0 0 0 0 0 0 0 0 127 0" result="hardAlpha"/>
<feOffset dy="20"/>
<feGaussianBlur stdDeviation="15"/>
<feComposite in2="hardAlpha" operator="out"/>
<feColorMatrix type="matrix" values="0 0 0 0 0.215686 0 0 0 0 0.247059 0 0 0 0 0.231373 0 0 0 0.1 0"/>
<feBlend mode="normal" in2="BackgroundImageFix" result="effect1_dropShadow"/>
<feBlend mode="normal" in="SourceGraphic" in2="effect1_dropShadow" result="shape"/>
</filter>
<linearGradient id="paint0_linear" x1="44.5" y1="21" x2="82.5" y2="78.5" gradientUnits="userSpaceOnUse">
<stop stop-color="#13C264"/>
<stop offset="1" stop-color="#0F964D"/>
</linearGradient>
</defs>
</svg>
